G04*
G04 #@! TF.GenerationSoftware,Altium Limited,Altium Designer,22.4.2 (48)*
G04*
G04 Layer_Physical_Order=2*
G04 Layer_Color=16711680*
%FSLAX25Y25*%
%MOIN*%
G70*
G04*
G04 #@! TF.SameCoordinates,7EE18B86-058B-4F95-B7C2-403A54D6B15C*
G04*
G04*
G04 #@! TF.FilePolarity,Positive*
G04*
G01*
G75*
%ADD12C,0.01000*%
%ADD46C,0.05906*%
%ADD47C,0.05906*%
%ADD48R,0.05906X0.05906*%
%ADD49C,0.18000*%
%ADD50R,0.05906X0.05906*%
%ADD51C,0.06693*%
%ADD52R,0.06693X0.06693*%
%ADD53C,0.23622*%
%ADD54C,0.04100*%
G36*
X204423Y201364D02*
X204046Y200711D01*
X203709Y199451D01*
Y198147D01*
X204046Y196888D01*
X204698Y195758D01*
X205620Y194836D01*
X206750Y194184D01*
X207220Y194058D01*
Y193540D01*
X206750Y193414D01*
X205620Y192762D01*
X204698Y191840D01*
X204046Y190711D01*
X203709Y189451D01*
Y188147D01*
X204046Y186888D01*
X204698Y185758D01*
X205620Y184836D01*
X206750Y184184D01*
X207220Y184058D01*
Y183540D01*
X206750Y183414D01*
X205620Y182762D01*
X204698Y181840D01*
X204046Y180711D01*
X203709Y179451D01*
Y178147D01*
X204046Y176888D01*
X204698Y175758D01*
X205620Y174836D01*
X206750Y174184D01*
X208009Y173846D01*
X209065D01*
Y148694D01*
X191814Y131443D01*
X161456D01*
X161196Y131943D01*
X161433Y132826D01*
Y132846D01*
X157480D01*
Y133846D01*
X161433D01*
Y133867D01*
X161164Y134872D01*
X160643Y135774D01*
X159907Y136509D01*
X159006Y137030D01*
X158001Y137299D01*
X157458D01*
X157251Y137799D01*
X159495Y140043D01*
X159863Y140594D01*
X160163Y140837D01*
X160514Y140736D01*
X161080Y140358D01*
X162056Y140164D01*
X162094D01*
X162291Y139431D01*
X162824Y138507D01*
X163578Y137753D01*
X164502Y137220D01*
X165532Y136944D01*
X166598D01*
X167628Y137220D01*
X168552Y137753D01*
X169306Y138507D01*
X169839Y139431D01*
X170115Y140461D01*
Y141527D01*
X169839Y142558D01*
X169306Y143481D01*
X168879Y143907D01*
X169217Y144493D01*
X169493Y145523D01*
Y146590D01*
X169369Y147051D01*
X170060Y147450D01*
X170814Y148204D01*
X171347Y149127D01*
X171623Y150157D01*
Y150301D01*
X178629Y157308D01*
X179077Y157049D01*
X179063Y156996D01*
X181587D01*
Y159520D01*
X181534Y159506D01*
X181275Y159954D01*
X182905Y161583D01*
X183457Y162410D01*
X183651Y163386D01*
Y190719D01*
X184343Y191411D01*
X184648Y191938D01*
X185143Y192003D01*
X185505Y191641D01*
X185935Y191393D01*
Y171978D01*
X185736Y171778D01*
X185202Y170855D01*
X184926Y169825D01*
Y168758D01*
X185202Y167728D01*
X185736Y166805D01*
X186490Y166051D01*
X187413Y165517D01*
X188443Y165241D01*
X189510D01*
X190540Y165517D01*
X191463Y166051D01*
X192217Y166805D01*
X192750Y167728D01*
X193026Y168758D01*
Y169825D01*
X192750Y170855D01*
X192217Y171778D01*
X191463Y172532D01*
X191033Y172780D01*
Y176367D01*
X191533Y176501D01*
X191962Y175758D01*
X192884Y174836D01*
X194014Y174184D01*
X195273Y173846D01*
X196577D01*
X197837Y174184D01*
X198966Y174836D01*
X199888Y175758D01*
X200540Y176888D01*
X200878Y178147D01*
Y179451D01*
X200540Y180711D01*
X199888Y181840D01*
X198966Y182762D01*
X197837Y183414D01*
X197367Y183540D01*
Y184058D01*
X197837Y184184D01*
X198966Y184836D01*
X199888Y185758D01*
X200540Y186888D01*
X200878Y188147D01*
Y189451D01*
X200540Y190711D01*
X199888Y191840D01*
X198966Y192762D01*
X197837Y193414D01*
X197367Y193540D01*
Y194058D01*
X197837Y194184D01*
X198966Y194836D01*
X199888Y195758D01*
X200540Y196888D01*
X200878Y198147D01*
Y199451D01*
X200540Y200711D01*
X200185Y201326D01*
X200274Y201543D01*
X200490Y201798D01*
X204173D01*
X204423Y201364D01*
D02*
G37*
G36*
X155144Y164546D02*
Y142901D01*
X147722Y135479D01*
X147628Y135491D01*
X147234Y135699D01*
Y146234D01*
X147040Y147210D01*
X146487Y148037D01*
X145265Y149258D01*
Y158748D01*
X145559Y159256D01*
X145740Y159933D01*
X139693D01*
X139874Y159256D01*
X140168Y158748D01*
Y148203D01*
X140315Y147461D01*
X139854Y147215D01*
X134173Y152897D01*
X133346Y153449D01*
X132370Y153643D01*
X130888D01*
X124596Y159935D01*
Y162532D01*
X125029Y162782D01*
X125405Y162565D01*
X126435Y162289D01*
X127502D01*
X128532Y162565D01*
X129455Y163098D01*
X130076Y163718D01*
X141358D01*
X141370Y163688D01*
X141441Y163218D01*
X140844Y162874D01*
X140276Y162306D01*
X139874Y161610D01*
X139693Y160933D01*
X145740D01*
X145559Y161610D01*
X145157Y162306D01*
X144589Y162874D01*
X143992Y163218D01*
X144063Y163688D01*
X144075Y163718D01*
X149680D01*
X150656Y163912D01*
X151416Y164420D01*
X152026Y164257D01*
X153092D01*
X154122Y164533D01*
X154644Y164834D01*
X155144Y164546D01*
D02*
G37*
G36*
X287402Y201629D02*
X287154Y200704D01*
Y199296D01*
X287402Y198371D01*
Y191630D01*
X287154Y190704D01*
Y189296D01*
X287402Y188371D01*
Y171630D01*
X287154Y170704D01*
Y169296D01*
X287402Y168370D01*
Y161629D01*
X287154Y160704D01*
Y159296D01*
X287402Y158370D01*
Y151629D01*
X287154Y150704D01*
Y149296D01*
X287402Y148371D01*
Y142431D01*
X243218D01*
X242644Y143005D01*
X241721Y143538D01*
X240691Y143814D01*
X239624D01*
X238594Y143538D01*
X237671Y143005D01*
X236917Y142251D01*
X236384Y141327D01*
X236107Y140297D01*
Y139231D01*
X236384Y138200D01*
X236917Y137277D01*
X237671Y136523D01*
X238594Y135990D01*
X239624Y135714D01*
X240691D01*
X241721Y135990D01*
X242644Y136523D01*
X243398Y137277D01*
X243431Y137333D01*
X287402D01*
Y131630D01*
X287154Y130704D01*
Y129296D01*
X287402Y128370D01*
Y101629D01*
X287154Y100704D01*
Y99296D01*
X287402Y98370D01*
Y91629D01*
X287154Y90704D01*
Y89296D01*
X287402Y88371D01*
Y81630D01*
X287154Y80704D01*
Y79296D01*
X287402Y78370D01*
Y71630D01*
X287154Y70704D01*
Y69296D01*
X287402Y68370D01*
Y61629D01*
X287154Y60704D01*
Y59296D01*
X287402Y58371D01*
Y51630D01*
X287154Y50704D01*
Y49296D01*
X287402Y48371D01*
Y42549D01*
X253851D01*
X252876Y42355D01*
X252049Y41802D01*
X251689Y41442D01*
X222508D01*
X222204Y41839D01*
X222433Y42694D01*
Y43998D01*
X222095Y45258D01*
X221444Y46387D01*
X220521Y47309D01*
X219392Y47961D01*
X218132Y48299D01*
X216828D01*
X215569Y47961D01*
X214439Y47309D01*
X213517Y46387D01*
X213074Y45621D01*
X212579Y45555D01*
X179751Y78383D01*
Y94597D01*
X180184Y94847D01*
X180523Y94651D01*
X181553Y94375D01*
X182532D01*
X185205Y91702D01*
X186032Y91149D01*
X187008Y90955D01*
X191703D01*
X192395Y90263D01*
X193319Y89730D01*
X194349Y89454D01*
X195415D01*
X196445Y89730D01*
X197369Y90263D01*
X198123Y91017D01*
X198656Y91941D01*
X198932Y92971D01*
Y94037D01*
X198656Y95067D01*
X198123Y95991D01*
X197369Y96745D01*
X196445Y97278D01*
X195415Y97554D01*
X194349D01*
X193319Y97278D01*
X192395Y96745D01*
X191703Y96053D01*
X188064D01*
X186137Y97980D01*
Y98958D01*
X185861Y99988D01*
X185327Y100912D01*
X184573Y101666D01*
X183650Y102199D01*
X182620Y102475D01*
X181553D01*
X180523Y102199D01*
X180184Y102003D01*
X179751Y102253D01*
Y119191D01*
X180442Y119882D01*
X180976Y120806D01*
X181252Y121836D01*
Y122902D01*
X180999Y123845D01*
X181241Y124345D01*
X193699D01*
X194674Y124539D01*
X195501Y125091D01*
X277861Y207451D01*
X287402D01*
Y201629D01*
D02*
G37*
G36*
X76740Y223534D02*
Y213846D01*
X79530D01*
X79663Y213347D01*
X78652Y212762D01*
X77730Y211840D01*
X77078Y210711D01*
X76740Y209451D01*
Y208147D01*
X77078Y206888D01*
X77730Y205758D01*
X78652Y204836D01*
X79781Y204184D01*
X80251Y204058D01*
Y203540D01*
X79781Y203414D01*
X78652Y202762D01*
X77730Y201840D01*
X77078Y200711D01*
X76740Y199451D01*
Y198147D01*
X76887Y197598D01*
X73985Y194696D01*
X73432Y193869D01*
X73238Y192894D01*
Y158991D01*
X73432Y158016D01*
X73985Y157189D01*
X85049Y146124D01*
Y131216D01*
X84549Y130872D01*
X84063Y131003D01*
X83724D01*
X72618Y142109D01*
X72322Y142621D01*
X71755Y143189D01*
X71059Y143590D01*
X70382Y143772D01*
Y140748D01*
X69382D01*
Y143772D01*
X68783Y143611D01*
X68282Y143849D01*
X67921Y223680D01*
X68274Y224034D01*
X76357D01*
X76740Y223534D01*
D02*
G37*
G36*
X128029Y149292D02*
X128856Y148739D01*
X129832Y148545D01*
X131315D01*
X136698Y143162D01*
Y142183D01*
X136974Y141153D01*
X137507Y140230D01*
X138261Y139476D01*
X139185Y138943D01*
X140215Y138666D01*
X141281D01*
X141739Y138789D01*
X142136Y138485D01*
Y135543D01*
X141843Y135036D01*
X141661Y134358D01*
X144685D01*
Y133358D01*
X141661D01*
X141843Y132681D01*
X142244Y131985D01*
X142812Y131418D01*
X142994Y131313D01*
X143059Y130817D01*
X133602Y121360D01*
X133303Y121160D01*
X121508Y109365D01*
X120530D01*
X119500Y109089D01*
X118576Y108556D01*
X117822Y107802D01*
X117289Y106878D01*
X117013Y105848D01*
Y104782D01*
X117289Y103752D01*
X117695Y103049D01*
X117427Y102549D01*
X106982D01*
X106715Y103049D01*
X107121Y103752D01*
X107396Y104782D01*
Y105760D01*
X119913Y118276D01*
X120465Y119103D01*
X120659Y120079D01*
Y156009D01*
X121121Y156200D01*
X128029Y149292D01*
D02*
G37*
G36*
X69480Y137698D02*
X69819D01*
X80925Y126592D01*
X81221Y126080D01*
X81789Y125512D01*
X82484Y125111D01*
X83161Y124929D01*
Y127953D01*
X84161D01*
Y124929D01*
X84549Y125033D01*
X85049Y124690D01*
Y119189D01*
X83828Y117967D01*
X83275Y117140D01*
X83081Y116164D01*
Y108494D01*
X82389Y107802D01*
X81856Y106878D01*
X81580Y105848D01*
Y104782D01*
X81856Y103752D01*
X82262Y103049D01*
X81994Y102549D01*
X68469D01*
X68310Y137626D01*
X68809Y137878D01*
X69480Y137698D01*
D02*
G37*
G36*
X173924Y119946D02*
X173961Y119882D01*
X174653Y119191D01*
Y77328D01*
X174847Y76352D01*
X175399Y75525D01*
X213739Y37185D01*
X213754Y36624D01*
X213517Y36387D01*
X212865Y35258D01*
X212528Y33998D01*
Y32694D01*
X212865Y31434D01*
X213517Y30305D01*
X214439Y29383D01*
X214931Y29099D01*
Y28299D01*
X212528D01*
Y18393D01*
X222433D01*
Y20089D01*
X247806D01*
X248498Y19397D01*
X249421Y18864D01*
X250451Y18588D01*
X251518D01*
X252548Y18864D01*
X253471Y19397D01*
X254225Y20151D01*
X254758Y21075D01*
X255034Y22105D01*
Y23171D01*
X254758Y24201D01*
X254225Y25125D01*
X253471Y25879D01*
X252548Y26412D01*
X251518Y26688D01*
X250451D01*
X249421Y26412D01*
X248498Y25879D01*
X247806Y25187D01*
X222433D01*
Y28299D01*
X220029D01*
Y29099D01*
X220521Y29383D01*
X221444Y30305D01*
X222095Y31434D01*
X222433Y32694D01*
Y33998D01*
X222095Y35258D01*
X221718Y35911D01*
X221968Y36344D01*
X252744D01*
X253720Y36538D01*
X254547Y37091D01*
X254907Y37451D01*
X287402D01*
Y31629D01*
X287154Y30704D01*
Y29296D01*
X287402Y28370D01*
Y21630D01*
X287154Y20704D01*
Y19296D01*
X287402Y18371D01*
Y7874D01*
X68898D01*
X68720Y47097D01*
X69073Y47451D01*
X88176D01*
X88443Y46951D01*
X87595Y45682D01*
X86841Y43862D01*
X86457Y41930D01*
Y41445D01*
X95957D01*
Y50945D01*
X95919D01*
X95712Y51445D01*
X97163Y52896D01*
X100924D01*
X101899Y53090D01*
X102726Y53642D01*
X106904Y57820D01*
X107328Y57537D01*
X106841Y56362D01*
X106457Y54430D01*
Y53945D01*
X115957D01*
Y63445D01*
X115472D01*
X113540Y63061D01*
X112364Y62574D01*
X112081Y62998D01*
X114061Y64977D01*
X125637D01*
X125941Y64581D01*
X125913Y64476D01*
X128937D01*
Y63476D01*
X125913D01*
X126095Y62799D01*
X126388Y62291D01*
Y59055D01*
X126582Y58080D01*
X127135Y57253D01*
X130864Y53523D01*
X131016Y52957D01*
X131418Y52261D01*
X131985Y51693D01*
X132681Y51292D01*
X133358Y51110D01*
Y54134D01*
X133858D01*
Y54634D01*
X136882D01*
X136700Y55311D01*
X136299Y56007D01*
X135731Y56574D01*
X135036Y56976D01*
X134469Y57128D01*
X131486Y60111D01*
Y62291D01*
X131779Y62799D01*
X131942Y63405D01*
X131989Y63396D01*
X140522D01*
X141214Y62704D01*
X142138Y62171D01*
X142864Y61976D01*
X143168Y61895D01*
X143220Y61395D01*
X143120Y60895D01*
Y58297D01*
X142429Y57605D01*
X141895Y56681D01*
X141619Y55651D01*
Y54585D01*
X141895Y53555D01*
X142429Y52631D01*
X143183Y51877D01*
X144106Y51344D01*
X144470Y51247D01*
X144600Y50763D01*
X125445Y31609D01*
X124467D01*
X123437Y31333D01*
X122513Y30800D01*
X121759Y30046D01*
X121226Y29122D01*
X120950Y28092D01*
Y27026D01*
X121226Y25996D01*
X121759Y25072D01*
X122513Y24318D01*
X123437Y23785D01*
X124467Y23509D01*
X125533D01*
X126563Y23785D01*
X127487Y24318D01*
X128241Y25072D01*
X128774Y25996D01*
X129050Y27026D01*
Y28004D01*
X144663Y43617D01*
X145104Y43381D01*
X145089Y43307D01*
X145283Y42332D01*
X145835Y41505D01*
X146662Y40952D01*
X147638Y40758D01*
X150167D01*
X153740Y37185D01*
X153754Y36624D01*
X153517Y36388D01*
X152865Y35258D01*
X152528Y33999D01*
Y32694D01*
X152865Y31435D01*
X153517Y30305D01*
X154439Y29383D01*
X155569Y28731D01*
X156039Y28605D01*
Y28088D01*
X155569Y27962D01*
X154439Y27310D01*
X153517Y26388D01*
X152865Y25258D01*
X152528Y23999D01*
Y22694D01*
X152865Y21435D01*
X153517Y20305D01*
X154439Y19383D01*
X155569Y18731D01*
X156828Y18394D01*
X158132D01*
X159392Y18731D01*
X160521Y19383D01*
X161443Y20305D01*
X162095Y21435D01*
X162433Y22694D01*
Y23999D01*
X162095Y25258D01*
X161443Y26388D01*
X160521Y27310D01*
X159392Y27962D01*
X158922Y28088D01*
Y28605D01*
X159392Y28731D01*
X160521Y29383D01*
X161443Y30305D01*
X162095Y31435D01*
X162433Y32694D01*
Y33999D01*
X162095Y35258D01*
X161718Y35912D01*
X161968Y36345D01*
X185547D01*
X186523Y36539D01*
X187350Y37091D01*
X192540Y42282D01*
X193106Y42433D01*
X193802Y42835D01*
X194370Y43403D01*
X194771Y44098D01*
X194953Y44776D01*
X191929D01*
Y45276D01*
X191429D01*
Y48299D01*
X190752Y48118D01*
X190056Y47716D01*
X189488Y47148D01*
X189087Y46453D01*
X188935Y45886D01*
X184491Y41443D01*
X162508D01*
X162204Y41839D01*
X162433Y42694D01*
Y43999D01*
X162286Y44547D01*
X172675Y54937D01*
X173228Y55764D01*
X173422Y56739D01*
Y119816D01*
X173913Y119948D01*
X173924Y119946D01*
D02*
G37*
%LPC*%
G36*
X182587Y159520D02*
Y156996D01*
X185110D01*
X184929Y157673D01*
X184527Y158369D01*
X183959Y158937D01*
X183264Y159338D01*
X182587Y159520D01*
D02*
G37*
G36*
X185110Y155996D02*
X179063D01*
X179244Y155319D01*
X179538Y154811D01*
Y145386D01*
X179244Y144878D01*
X179063Y144201D01*
X185110D01*
X184929Y144878D01*
X184636Y145386D01*
Y154811D01*
X184929Y155319D01*
X185110Y155996D01*
D02*
G37*
G36*
Y143201D02*
X182587D01*
Y140677D01*
X183264Y140859D01*
X183959Y141260D01*
X184527Y141828D01*
X184929Y142524D01*
X185110Y143201D01*
D02*
G37*
G36*
X181587D02*
X179063D01*
X179244Y142524D01*
X179646Y141828D01*
X180214Y141260D01*
X180909Y140859D01*
X181587Y140677D01*
Y143201D01*
D02*
G37*
G36*
X267232Y109323D02*
Y106799D01*
X269756D01*
X269574Y107476D01*
X269173Y108172D01*
X268605Y108740D01*
X267910Y109141D01*
X267232Y109323D01*
D02*
G37*
G36*
X266232D02*
X265555Y109141D01*
X264860Y108740D01*
X264292Y108172D01*
X263890Y107476D01*
X263738Y106910D01*
X255087Y98259D01*
X254535Y97432D01*
X254341Y96457D01*
Y81410D01*
X254048Y80902D01*
X253866Y80224D01*
X259913D01*
X259732Y80902D01*
X259439Y81410D01*
Y95401D01*
X267343Y103305D01*
X267910Y103457D01*
X268605Y103859D01*
X269173Y104427D01*
X269574Y105122D01*
X269756Y105799D01*
X266732D01*
Y106299D01*
X266232D01*
Y109323D01*
D02*
G37*
G36*
X259913Y79224D02*
X257390D01*
Y76701D01*
X258067Y76882D01*
X258763Y77284D01*
X259330Y77852D01*
X259732Y78547D01*
X259913Y79224D01*
D02*
G37*
G36*
X256390D02*
X253866D01*
X254048Y78547D01*
X254449Y77852D01*
X255017Y77284D01*
X255713Y76882D01*
X256390Y76701D01*
Y79224D01*
D02*
G37*
G36*
X218132Y138299D02*
X216828D01*
X215569Y137961D01*
X214439Y137309D01*
X213517Y136387D01*
X212865Y135258D01*
X212528Y133998D01*
Y132694D01*
X212865Y131434D01*
X213517Y130305D01*
X214439Y129383D01*
X215569Y128731D01*
X216039Y128605D01*
Y128087D01*
X215569Y127961D01*
X214439Y127309D01*
X213517Y126387D01*
X212865Y125258D01*
X212528Y123998D01*
Y122694D01*
X212865Y121434D01*
X213517Y120305D01*
X214439Y119383D01*
X215569Y118731D01*
X216039Y118605D01*
Y118087D01*
X215569Y117961D01*
X214439Y117309D01*
X213517Y116387D01*
X212865Y115258D01*
X212528Y113998D01*
Y112694D01*
X212865Y111434D01*
X213517Y110305D01*
X214439Y109383D01*
X215569Y108731D01*
X216039Y108605D01*
Y108087D01*
X215569Y107961D01*
X214439Y107309D01*
X213517Y106387D01*
X212865Y105258D01*
X212528Y103998D01*
Y102694D01*
X212865Y101435D01*
X213517Y100305D01*
X214439Y99383D01*
X215569Y98731D01*
X216039Y98605D01*
Y98087D01*
X215569Y97961D01*
X214439Y97309D01*
X213517Y96387D01*
X212865Y95258D01*
X212528Y93998D01*
Y92694D01*
X212865Y91435D01*
X213517Y90305D01*
X214439Y89383D01*
X215569Y88731D01*
X216039Y88605D01*
Y88087D01*
X215569Y87961D01*
X214439Y87309D01*
X213517Y86387D01*
X212865Y85258D01*
X212528Y83998D01*
Y82694D01*
X212865Y81435D01*
X213517Y80305D01*
X214439Y79383D01*
X215569Y78731D01*
X216039Y78605D01*
Y78087D01*
X215569Y77961D01*
X214439Y77309D01*
X213517Y76387D01*
X212865Y75258D01*
X212528Y73998D01*
Y72694D01*
X212865Y71434D01*
X213517Y70305D01*
X214439Y69383D01*
X215569Y68731D01*
X216828Y68393D01*
X218132D01*
X219392Y68731D01*
X220521Y69383D01*
X221444Y70305D01*
X222095Y71434D01*
X222433Y72694D01*
Y73998D01*
X222095Y75258D01*
X221444Y76387D01*
X220521Y77309D01*
X219392Y77961D01*
X218922Y78087D01*
Y78605D01*
X219392Y78731D01*
X220521Y79383D01*
X221444Y80305D01*
X222095Y81435D01*
X222433Y82694D01*
Y83998D01*
X222095Y85258D01*
X221444Y86387D01*
X220521Y87309D01*
X219392Y87961D01*
X218922Y88087D01*
Y88605D01*
X219392Y88731D01*
X220521Y89383D01*
X221444Y90305D01*
X222095Y91435D01*
X222433Y92694D01*
Y93998D01*
X222095Y95258D01*
X221444Y96387D01*
X220521Y97309D01*
X219392Y97961D01*
X218922Y98087D01*
Y98605D01*
X219392Y98731D01*
X220521Y99383D01*
X221444Y100305D01*
X222095Y101435D01*
X222433Y102694D01*
Y103998D01*
X222095Y105258D01*
X221444Y106387D01*
X220521Y107309D01*
X219392Y107961D01*
X218922Y108087D01*
Y108605D01*
X219392Y108731D01*
X220521Y109383D01*
X221444Y110305D01*
X222095Y111434D01*
X222433Y112694D01*
Y113998D01*
X222095Y115258D01*
X221444Y116387D01*
X220521Y117309D01*
X219392Y117961D01*
X218922Y118087D01*
Y118605D01*
X219392Y118731D01*
X220521Y119383D01*
X221444Y120305D01*
X222095Y121434D01*
X222433Y122694D01*
Y123998D01*
X222095Y125258D01*
X221444Y126387D01*
X220521Y127309D01*
X219392Y127961D01*
X218922Y128087D01*
Y128605D01*
X219392Y128731D01*
X220521Y129383D01*
X221444Y130305D01*
X222095Y131434D01*
X222433Y132694D01*
Y133998D01*
X222095Y135258D01*
X221444Y136387D01*
X220521Y137309D01*
X219392Y137961D01*
X218132Y138299D01*
D02*
G37*
G36*
X218001Y67299D02*
X217980D01*
Y63846D01*
X221433D01*
Y63867D01*
X221164Y64872D01*
X220643Y65773D01*
X219907Y66509D01*
X219006Y67030D01*
X218001Y67299D01*
D02*
G37*
G36*
X216980D02*
X216960D01*
X215955Y67030D01*
X215053Y66509D01*
X214317Y65773D01*
X213797Y64872D01*
X213528Y63867D01*
Y63846D01*
X216980D01*
Y67299D01*
D02*
G37*
G36*
X221433Y62846D02*
X217980D01*
Y59393D01*
X218001D01*
X219006Y59663D01*
X219907Y60183D01*
X220643Y60919D01*
X221164Y61820D01*
X221433Y62826D01*
Y62846D01*
D02*
G37*
G36*
X216980D02*
X213528D01*
Y62826D01*
X213797Y61820D01*
X214317Y60919D01*
X215053Y60183D01*
X215955Y59663D01*
X216960Y59393D01*
X216980D01*
Y62846D01*
D02*
G37*
G36*
X218001Y57299D02*
X217980D01*
Y53846D01*
X221433D01*
Y53866D01*
X221164Y54872D01*
X220643Y55773D01*
X219907Y56509D01*
X219006Y57029D01*
X218001Y57299D01*
D02*
G37*
G36*
X216980D02*
X216960D01*
X215955Y57029D01*
X215053Y56509D01*
X214317Y55773D01*
X213797Y54872D01*
X213528Y53866D01*
Y53846D01*
X216980D01*
Y57299D01*
D02*
G37*
G36*
X221433Y52846D02*
X217980D01*
Y49393D01*
X218001D01*
X219006Y49663D01*
X219907Y50183D01*
X220643Y50919D01*
X221164Y51820D01*
X221433Y52826D01*
Y52846D01*
D02*
G37*
G36*
X216980D02*
X213528D01*
Y52826D01*
X213797Y51820D01*
X214317Y50919D01*
X215053Y50183D01*
X215955Y49663D01*
X216960Y49393D01*
X216980D01*
Y52846D01*
D02*
G37*
G36*
X117442Y63445D02*
X116957D01*
Y53945D01*
X126457D01*
Y54430D01*
X126072Y56362D01*
X125319Y58182D01*
X124224Y59820D01*
X122831Y61212D01*
X121194Y62307D01*
X119374Y63061D01*
X117442Y63445D01*
D02*
G37*
G36*
X136882Y53634D02*
X134358D01*
Y51110D01*
X135036Y51292D01*
X135731Y51693D01*
X136299Y52261D01*
X136700Y52957D01*
X136882Y53634D01*
D02*
G37*
G36*
X192429Y48299D02*
Y45776D01*
X194953D01*
X194771Y46453D01*
X194370Y47148D01*
X193802Y47716D01*
X193106Y48118D01*
X192429Y48299D01*
D02*
G37*
G36*
X126457Y52945D02*
X116957D01*
Y43445D01*
X117442D01*
X119374Y43829D01*
X121194Y44583D01*
X122831Y45677D01*
X124224Y47070D01*
X125319Y48708D01*
X126072Y50528D01*
X126457Y52460D01*
Y52945D01*
D02*
G37*
G36*
X115957D02*
X106457D01*
Y52460D01*
X106841Y50528D01*
X107595Y48708D01*
X108689Y47070D01*
X110082Y45677D01*
X111720Y44583D01*
X113540Y43829D01*
X115472Y43445D01*
X115957D01*
Y52945D01*
D02*
G37*
G36*
X97442Y50945D02*
X96957D01*
Y41445D01*
X106457D01*
Y41930D01*
X106072Y43862D01*
X105319Y45682D01*
X104224Y47319D01*
X102831Y48712D01*
X101193Y49807D01*
X99374Y50561D01*
X97442Y50945D01*
D02*
G37*
G36*
X106457Y40445D02*
X96957D01*
Y30945D01*
X97442D01*
X99374Y31329D01*
X101193Y32083D01*
X102831Y33177D01*
X104224Y34570D01*
X105319Y36208D01*
X106072Y38028D01*
X106457Y39960D01*
Y40445D01*
D02*
G37*
G36*
X95957D02*
X86457D01*
Y39960D01*
X86841Y38028D01*
X87595Y36208D01*
X88689Y34570D01*
X90082Y33177D01*
X91720Y32083D01*
X93540Y31329D01*
X95472Y30945D01*
X95957D01*
Y40445D01*
D02*
G37*
%LPD*%
D12*
X158128Y87752D02*
G03*
X156833Y87752I-647J-4405D01*
G01*
X212066Y185930D02*
G03*
X212066Y191669I-3405J2869D01*
G01*
X211720Y175563D02*
G03*
X211227Y182439I-3059J3236D01*
G01*
X211151Y182499D02*
G03*
X211227Y182439I662J750D01*
G01*
X138779Y169817D02*
Y194882D01*
X144282Y170220D02*
Y194479D01*
X143879Y169817D02*
X144282Y170220D01*
X149680Y166267D02*
X151720Y168307D01*
X127040Y166267D02*
X149680D01*
X126969Y166339D02*
X127040Y166267D01*
X151720Y168307D02*
X152559D01*
X102362Y179882D02*
X111279Y188799D01*
X102362Y169889D02*
Y179882D01*
X149251Y51810D02*
Y65117D01*
X125000Y27559D02*
X149251Y51810D01*
Y65117D02*
X157480Y73347D01*
X147638Y43307D02*
X151223D01*
X155636Y38894D01*
X185547D01*
X153880Y87752D02*
X156833D01*
X158128D02*
X166167D01*
X153874Y87752D02*
X153880Y87752D01*
X67983Y86614D02*
X153874Y87752D01*
X166167Y87752D02*
X166330Y87590D01*
X67154Y86614D02*
X67983D01*
X66861Y86907D02*
X67154Y86614D01*
X170873Y121061D02*
X176706Y126894D01*
X63769Y90000D02*
X66861Y86907D01*
X62500Y90000D02*
X63769D01*
X157480Y43347D02*
X170873Y56739D01*
Y121061D01*
X60492Y95153D02*
X139287D01*
X57653Y97992D02*
X60492Y95153D01*
X139287D02*
X157480Y113347D01*
X93462Y77799D02*
X164327D01*
X47653Y77992D02*
Y142008D01*
X90816Y75153D02*
X93462Y77799D01*
X50493Y75153D02*
X90816D01*
X128937Y59055D02*
X133858Y54134D01*
X131989Y65945D02*
X143701D01*
X113005Y67526D02*
X130408D01*
X131989Y65945D01*
X128937Y59055D02*
Y63976D01*
X100924Y55445D02*
X113005Y67526D01*
X57653Y97992D02*
Y105154D01*
X164327Y77799D02*
X164370Y77756D01*
X124016Y73819D02*
X140847D01*
X147251Y67415D01*
Y62477D02*
Y67415D01*
X145669Y60895D02*
X147251Y62477D01*
X145669Y55118D02*
Y60895D01*
X157693Y141846D02*
Y166049D01*
X135106Y119358D02*
X135205D01*
X157693Y141846D01*
X121063Y105315D02*
X135106Y119358D01*
X129832Y151094D02*
X132370D01*
X140748Y142717D01*
X122047Y158879D02*
X129832Y151094D01*
X144685Y133858D02*
Y146234D01*
X142717Y148203D02*
X144685Y146234D01*
X122047Y158879D02*
Y175761D01*
X124016Y177729D02*
Y178799D01*
X122047Y175761D02*
X124016Y177729D01*
X210630Y193373D02*
Y196831D01*
Y183397D02*
X210630Y183025D01*
X211149Y182501D02*
X211151Y182499D01*
X210836Y182814D02*
X211149Y182501D01*
X210630Y184225D02*
X212066Y185930D01*
X210630Y183025D02*
X210836Y182814D01*
X137198Y105315D02*
X137795Y108537D01*
X210630Y183397D02*
Y184225D01*
Y193373D02*
X212066Y191669D01*
X137795Y108537D02*
Y109959D01*
X142717Y148203D02*
Y160433D01*
X182087Y143701D02*
Y156496D01*
X185547Y38894D02*
X191929Y45276D01*
X256890Y96457D02*
X266732Y106299D01*
X256890Y79724D02*
Y96457D01*
X87598Y118133D02*
Y147180D01*
X85630Y105315D02*
Y116164D01*
X87598Y118133D01*
X69882Y140748D02*
X70374D01*
X83169Y127953D01*
X83661D01*
X47653Y77992D02*
X50493Y75153D01*
X47653Y142008D02*
X50800Y145153D01*
X57653D02*
X62500Y150000D01*
X50800Y145153D02*
X57653D01*
X182087Y98425D02*
X187008Y93504D01*
X194882D01*
X144282Y194479D02*
X144685Y194882D01*
X93012Y148130D02*
Y161909D01*
X93504Y162402D01*
X188484Y169783D02*
Y194390D01*
X187992Y194882D02*
X188484Y194390D01*
Y169783D02*
X188976Y169291D01*
X166339Y198799D02*
X195925D01*
X218189Y22638D02*
X250984D01*
X217480Y23346D02*
X218189Y22638D01*
X217480Y23346D02*
Y33346D01*
X276805Y210000D02*
X292500D01*
X176706Y126894D02*
X193699D01*
X276805Y210000D01*
X156730Y128894D02*
X192870D01*
X211614Y147638D02*
Y175457D01*
X192870Y128894D02*
X211614Y147638D01*
X208661Y198799D02*
X210337Y197124D01*
X210630Y196831D01*
X177202Y77328D02*
X215636Y38893D01*
X252744D01*
X177202Y77328D02*
Y122369D01*
X57653Y105154D02*
X62500Y110000D01*
Y100000D02*
X137501D01*
X147904Y110403D02*
Y113770D01*
X137501Y100000D02*
X147904Y110403D01*
Y113770D02*
X157480Y123346D01*
X240158Y139764D02*
X240276Y139882D01*
X292382D01*
X292500Y140000D01*
X146431Y208799D02*
X150883Y213252D01*
X161031D01*
X118708D02*
X123161Y208799D01*
X146431D01*
X123012Y198799D02*
X124016D01*
X153602D01*
X90663Y50000D02*
X96107Y55445D01*
X62500Y50000D02*
X90663D01*
X96107Y55445D02*
X100924D01*
X163243Y148876D02*
Y163874D01*
X165226Y140994D02*
X166065D01*
X159693Y145076D02*
X162056Y142713D01*
X163243Y148876D02*
X165443Y146676D01*
X168407Y150690D02*
X181102Y163386D01*
X162056Y142713D02*
X163507D01*
X167573Y150690D02*
X168407D01*
X165443Y146056D02*
Y146676D01*
X163507Y142713D02*
X165226Y140994D01*
X163243Y163874D02*
X176002Y176633D01*
X252744Y38893D02*
X253851Y40000D01*
X292500D01*
X103347Y105315D02*
X118110Y120079D01*
Y193898D01*
X123012Y198799D01*
X181102Y163386D02*
Y193898D01*
X159330Y208799D02*
X163783Y204346D01*
X191472D02*
X195925Y208799D01*
X163783Y204346D02*
X191472D01*
X176002Y176633D02*
Y193898D01*
X211614Y175457D02*
X211720Y175563D01*
X211227Y182439D02*
X211227Y182439D01*
X159693Y145076D02*
Y163152D01*
X170791Y174251D01*
X166339Y188799D02*
X170791Y184346D01*
Y174251D02*
Y184346D01*
X157693Y166049D02*
X158055Y166411D01*
Y190516D01*
X137795Y109959D02*
X156730Y128894D01*
X105670Y141880D02*
X105985Y142195D01*
Y151260D01*
X92520Y147638D02*
X93012Y148130D01*
X75787Y158991D02*
Y192894D01*
Y158991D02*
X87598Y147180D01*
X105985Y151260D02*
X106299Y151575D01*
X75787Y192894D02*
X81693Y198799D01*
X233795Y204346D02*
X238248Y208799D01*
X195925D02*
X200378Y204346D01*
X233795D01*
X153602Y208799D02*
X159330D01*
X149150Y204346D02*
X153602Y208799D01*
X117007D02*
X121460Y204346D01*
X149150D01*
X111279Y208799D02*
X117007D01*
X207806D02*
X208661D01*
X203353Y213252D02*
X207806Y208799D01*
X193206Y213252D02*
X203353D01*
X188754Y208799D02*
X193206Y213252D01*
X166339Y208799D02*
X188754D01*
X165483D02*
X166339D01*
X161031Y213252D02*
X165483Y208799D01*
X100299Y213252D02*
X118708D01*
X95846Y208799D02*
X100299Y213252D01*
X81693Y208799D02*
X95846D01*
X205087Y214347D02*
X233795D01*
X195925Y218799D02*
X200635D01*
X205087Y214347D01*
X233795D02*
X238248Y218799D01*
X181054D02*
X185507Y223252D01*
X166339Y218799D02*
X181054D01*
X191472Y214347D02*
X195925Y218799D01*
X162765Y214347D02*
X191472D01*
X158312Y218799D02*
X162765Y214347D01*
X153602Y218799D02*
X158312D01*
X149150Y214347D02*
X153602Y218799D01*
X120442Y214347D02*
X149150D01*
X115989Y218799D02*
X120442Y214347D01*
X111279Y218799D02*
X115989D01*
X124016D02*
X141951D01*
X146404Y223252D01*
X208661Y198799D02*
X238248D01*
X185507Y223252D02*
X204209D01*
X208661Y218799D01*
X146404Y223252D02*
X161886D01*
X166339Y218799D01*
X119563Y223252D02*
X124016Y218799D01*
X104081Y223252D02*
X119563D01*
X99628Y218799D02*
X104081Y223252D01*
X81693Y218799D02*
X99628D01*
X158055Y190516D02*
X166339Y198799D01*
X81693D02*
X111279D01*
X23498Y55000D02*
X17500D01*
Y57999D01*
X18500Y58999D01*
X22498D01*
X23498Y57999D01*
Y55000D01*
X17500Y63997D02*
Y61998D01*
X18500Y60998D01*
X20499D01*
X21499Y61998D01*
Y63997D01*
X20499Y64997D01*
X19499D01*
Y60998D01*
X23498Y66996D02*
X17500D01*
Y69995D01*
X18500Y70995D01*
X19499D01*
X20499D01*
X21499Y69995D01*
Y66996D01*
Y72994D02*
X17500D01*
X19499D01*
X20499Y73994D01*
X21499Y74993D01*
Y75993D01*
X17500Y81991D02*
Y79992D01*
X18500Y78992D01*
X20499D01*
X21499Y79992D01*
Y81991D01*
X20499Y82991D01*
X19499D01*
Y78992D01*
X21499Y88989D02*
Y85990D01*
X20499Y84990D01*
X18500D01*
X17500Y85990D01*
Y88989D01*
X21499Y90988D02*
Y94987D01*
X17500Y90988D01*
Y94987D01*
Y99985D02*
Y97986D01*
X18500Y96986D01*
X20499D01*
X21499Y97986D01*
Y99985D01*
X20499Y100985D01*
X19499D01*
Y96986D01*
X17500Y102984D02*
X21499D01*
Y105983D01*
X20499Y106983D01*
X17500D01*
Y108983D02*
Y110982D01*
Y109982D01*
X21499D01*
Y108983D01*
X23498Y119979D02*
X17500D01*
Y123978D01*
X21499Y126977D02*
Y128976D01*
X20499Y129976D01*
X17500D01*
Y126977D01*
X18500Y125977D01*
X19499Y126977D01*
Y129976D01*
X17500Y131975D02*
Y134974D01*
X18500Y135974D01*
X19499Y134974D01*
Y132975D01*
X20499Y131975D01*
X21499Y132975D01*
Y135974D01*
Y137973D02*
Y141972D01*
X17500Y137973D01*
Y141972D01*
Y143971D02*
Y145971D01*
Y144971D01*
X23498D01*
Y143971D01*
X17500Y149969D02*
Y151969D01*
X18500Y152968D01*
X20499D01*
X21499Y151969D01*
Y149969D01*
X20499Y148970D01*
X18500D01*
X17500Y149969D01*
Y160966D02*
X21499D01*
X23498Y162965D01*
X21499Y164964D01*
X17500D01*
X20499D01*
Y160966D01*
X17500Y170963D02*
Y166964D01*
X21499Y170963D01*
X22498D01*
X23498Y169963D01*
Y167964D01*
X22498Y166964D01*
X23498Y172962D02*
Y176961D01*
X22498D01*
X18500Y172962D01*
X17500D01*
D46*
X157480Y53347D02*
D03*
Y43347D02*
D03*
Y33347D02*
D03*
Y63346D02*
D03*
Y73347D02*
D03*
Y83346D02*
D03*
Y93347D02*
D03*
Y103347D02*
D03*
Y113347D02*
D03*
Y123346D02*
D03*
Y133346D02*
D03*
X217480Y133346D02*
D03*
Y123346D02*
D03*
Y113346D02*
D03*
Y103346D02*
D03*
Y93346D02*
D03*
Y83346D02*
D03*
Y73346D02*
D03*
Y63346D02*
D03*
Y33346D02*
D03*
Y43346D02*
D03*
Y53346D02*
D03*
X238248Y198799D02*
D03*
X208661Y208799D02*
D03*
Y198799D02*
D03*
Y188799D02*
D03*
Y178799D02*
D03*
X238248Y188799D02*
D03*
Y218799D02*
D03*
Y208799D02*
D03*
Y178799D02*
D03*
X195925D02*
D03*
Y208799D02*
D03*
Y218799D02*
D03*
Y188799D02*
D03*
X166339Y178799D02*
D03*
Y188799D02*
D03*
Y198799D02*
D03*
Y208799D02*
D03*
X195925Y198799D02*
D03*
X153602Y178799D02*
D03*
Y208799D02*
D03*
Y218799D02*
D03*
Y188799D02*
D03*
X124016Y178799D02*
D03*
Y188799D02*
D03*
Y198799D02*
D03*
Y208799D02*
D03*
X153602Y198799D02*
D03*
X111279Y178799D02*
D03*
Y208799D02*
D03*
Y218799D02*
D03*
Y188799D02*
D03*
X81693Y178799D02*
D03*
Y188799D02*
D03*
Y198799D02*
D03*
Y208799D02*
D03*
X111279Y198799D02*
D03*
D47*
X157480Y23347D02*
D03*
D48*
X217480Y23346D02*
D03*
D49*
X96457Y65945D02*
D03*
Y40945D02*
D03*
X116457Y53445D02*
D03*
D50*
X208661Y218799D02*
D03*
X166339D02*
D03*
X124016D02*
D03*
X81693D02*
D03*
D51*
X62500Y20000D02*
D03*
X52500D02*
D03*
X292500D02*
D03*
X302500D02*
D03*
X52500Y210000D02*
D03*
X62500Y200000D02*
D03*
X52500D02*
D03*
X62500Y190000D02*
D03*
X52500D02*
D03*
X62500Y180000D02*
D03*
X52500D02*
D03*
X62500Y170000D02*
D03*
X52500D02*
D03*
X62500Y160000D02*
D03*
X52500D02*
D03*
X62500Y150000D02*
D03*
X52500D02*
D03*
X62500Y140000D02*
D03*
X52500D02*
D03*
X62500Y130000D02*
D03*
X52500D02*
D03*
X62500Y120000D02*
D03*
X52500D02*
D03*
X62500Y110000D02*
D03*
X52500D02*
D03*
X62500Y100000D02*
D03*
X52500D02*
D03*
X62500Y90000D02*
D03*
X52500D02*
D03*
X62500Y80000D02*
D03*
X52500D02*
D03*
X62500Y70000D02*
D03*
X52500D02*
D03*
X62500Y60000D02*
D03*
X52500D02*
D03*
X62500Y50000D02*
D03*
X52500D02*
D03*
X62500Y40000D02*
D03*
X52500D02*
D03*
X62500Y30000D02*
D03*
X52500D02*
D03*
X292500Y210000D02*
D03*
X302500Y200000D02*
D03*
X292500D02*
D03*
X302500Y190000D02*
D03*
X292500D02*
D03*
X302500Y180000D02*
D03*
X292500D02*
D03*
X302500Y170000D02*
D03*
X292500D02*
D03*
X302500Y160000D02*
D03*
X292500D02*
D03*
X302500Y150000D02*
D03*
X292500D02*
D03*
X302500Y140000D02*
D03*
X292500D02*
D03*
X302500Y130000D02*
D03*
X292500D02*
D03*
X302500Y120000D02*
D03*
X292500D02*
D03*
X302500Y110000D02*
D03*
X292500D02*
D03*
X302500Y100000D02*
D03*
X292500D02*
D03*
X302500Y90000D02*
D03*
X292500D02*
D03*
X302500Y80000D02*
D03*
X292500D02*
D03*
X302500Y70000D02*
D03*
X292500D02*
D03*
X302500Y60000D02*
D03*
X292500D02*
D03*
X302500Y50000D02*
D03*
X292500D02*
D03*
X302500Y40000D02*
D03*
X292500D02*
D03*
X302500Y30000D02*
D03*
X292500D02*
D03*
D52*
X62500Y210000D02*
D03*
X302500D02*
D03*
D53*
X20000D02*
D03*
X335000D02*
D03*
Y20000D02*
D03*
X20000D02*
D03*
D54*
X143879Y169817D02*
D03*
X138779D02*
D03*
X152559Y168307D02*
D03*
X102362Y169889D02*
D03*
X125000Y27559D02*
D03*
X166339Y87598D02*
D03*
X143701Y65945D02*
D03*
X128937Y63976D02*
D03*
X164370Y77756D02*
D03*
X124016Y73819D02*
D03*
X145669Y55118D02*
D03*
X144685Y133858D02*
D03*
X140748Y142717D02*
D03*
X137198Y105315D02*
D03*
X142717Y160433D02*
D03*
X182087Y156496D02*
D03*
Y143701D02*
D03*
X191929Y45276D02*
D03*
X256890Y79724D02*
D03*
X266732Y106299D02*
D03*
X83661Y127953D02*
D03*
X69882Y140748D02*
D03*
X133858Y54134D02*
D03*
X182087Y98425D02*
D03*
X194882Y93504D02*
D03*
X126969Y166339D02*
D03*
X93504Y162402D02*
D03*
X187992Y194882D02*
D03*
X188976Y169291D02*
D03*
X250984Y22638D02*
D03*
X240158Y139764D02*
D03*
X138779Y194882D02*
D03*
X144685D02*
D03*
X165443Y146056D02*
D03*
X166065Y140994D02*
D03*
X167573Y150690D02*
D03*
X177202Y122369D02*
D03*
X181102Y193898D02*
D03*
X176002D02*
D03*
X105670Y141880D02*
D03*
X92520Y147638D02*
D03*
X106299Y151575D02*
D03*
X121063Y105315D02*
D03*
X103347D02*
D03*
X85630D02*
D03*
M02*
