G04*
G04 #@! TF.GenerationSoftware,Altium Limited,Altium Designer,22.4.2 (48)*
G04*
G04 Layer_Color=65535*
%FSLAX25Y25*%
%MOIN*%
G70*
G04*
G04 #@! TF.SameCoordinates,2B347DE3-97D0-49F3-8BDC-BE20E8F67AC4*
G04*
G04*
G04 #@! TF.FilePolarity,Positive*
G04*
G01*
G75*
%ADD10C,0.00984*%
%ADD11C,0.02362*%
%ADD12C,0.01000*%
%ADD13C,0.00787*%
D10*
X140551Y116240D02*
G03*
X140551Y116240I-492J0D01*
G01*
X122835D02*
G03*
X122835Y116240I-492J0D01*
G01*
X105118D02*
G03*
X105118Y116240I-492J0D01*
G01*
X87402D02*
G03*
X87402Y116240I-492J0D01*
G01*
X149902Y165551D02*
G03*
X149902Y165551I-492J0D01*
G01*
X110236Y74606D02*
G03*
X110236Y74606I-492J0D01*
G01*
X201043Y218799D02*
G03*
X201043Y218799I-492J0D01*
G01*
X77953Y163661D02*
G03*
X77953Y163661I-492J0D01*
G01*
X158721Y218799D02*
G03*
X158721Y218799I-492J0D01*
G01*
X116398D02*
G03*
X116398Y218799I-492J0D01*
G01*
X74075D02*
G03*
X74075Y218799I-492J0D01*
G01*
D11*
X159252Y159646D02*
G03*
X159252Y159646I-1181J0D01*
G01*
X87402Y158465D02*
G03*
X87402Y158465I-1181J0D01*
G01*
D12*
X274016Y135827D02*
G03*
X274016Y135827I-5315J0D01*
G01*
Y194882D02*
G03*
X274016Y194882I-5315J0D01*
G01*
X151732Y17638D02*
X223189D01*
X151732D02*
Y138996D01*
X223189D01*
Y17638D02*
Y138996D01*
X77953Y13732D02*
X115748D01*
X77953Y11811D02*
Y68898D01*
Y11811D02*
X115748D01*
Y63681D02*
Y68898D01*
Y11811D02*
Y43110D01*
X106201Y68898D02*
X115748D01*
X77953D02*
X86713D01*
X258201Y125827D02*
Y145827D01*
Y125827D02*
X279201D01*
Y145827D01*
X258201D02*
X279201D01*
X258201Y184882D02*
Y204882D01*
Y184882D02*
X279201D01*
Y204882D01*
X258201D02*
X279201D01*
X127400Y45100D02*
Y51098D01*
X130399D01*
X131399Y50098D01*
Y48099D01*
X130399Y47099D01*
X127400D01*
X129399D02*
X131399Y45100D01*
X133398D02*
X135397D01*
X134398D01*
Y51098D01*
X133398Y50098D01*
X138396D02*
X139396Y51098D01*
X141395D01*
X142395Y50098D01*
Y46100D01*
X141395Y45100D01*
X139396D01*
X138396Y46100D01*
Y50098D01*
X132797Y19731D02*
Y13733D01*
X135796D01*
X136796Y14733D01*
Y18732D01*
X135796Y19731D01*
X132797D01*
X142794Y13733D02*
X138795D01*
X142794Y17732D01*
Y18732D01*
X141794Y19731D01*
X139795D01*
X138795Y18732D01*
X225317Y137842D02*
Y132843D01*
X226316Y131843D01*
X228316D01*
X229315Y132843D01*
Y137842D01*
X234314Y131843D02*
Y137842D01*
X231315Y134843D01*
X235313D01*
X160342Y171798D02*
Y166800D01*
X161341Y165800D01*
X163340D01*
X164340Y166800D01*
Y171798D01*
X166340Y170799D02*
X167339Y171798D01*
X169339D01*
X170338Y170799D01*
Y169799D01*
X169339Y168799D01*
X168339D01*
X169339D01*
X170338Y167799D01*
Y166800D01*
X169339Y165800D01*
X167339D01*
X166340Y166800D01*
X73100Y173598D02*
Y168600D01*
X74100Y167600D01*
X76099D01*
X77099Y168600D01*
Y173598D01*
X83097Y167600D02*
X79098D01*
X83097Y171599D01*
Y172598D01*
X82097Y173598D01*
X80098D01*
X79098Y172598D01*
X276800Y102000D02*
Y107998D01*
X279799D01*
X280799Y106998D01*
Y104999D01*
X279799Y103999D01*
X276800D01*
X278799D02*
X280799Y102000D01*
X282798Y103000D02*
X283798Y102000D01*
X285797D01*
X286797Y103000D01*
Y106998D01*
X285797Y107998D01*
X283798D01*
X282798Y106998D01*
Y105999D01*
X283798Y104999D01*
X286797D01*
X236400Y168900D02*
Y174898D01*
X239399D01*
X240399Y173898D01*
Y171899D01*
X239399Y170899D01*
X236400D01*
X238399D02*
X240399Y168900D01*
X242398Y173898D02*
X243398Y174898D01*
X245397D01*
X246397Y173898D01*
Y172899D01*
X245397Y171899D01*
X246397Y170899D01*
Y169900D01*
X245397Y168900D01*
X243398D01*
X242398Y169900D01*
Y170899D01*
X243398Y171899D01*
X242398Y172899D01*
Y173898D01*
X243398Y171899D02*
X245397D01*
X263000Y102000D02*
Y107998D01*
X265999D01*
X266999Y106998D01*
Y104999D01*
X265999Y103999D01*
X263000D01*
X264999D02*
X266999Y102000D01*
X268998Y107998D02*
X272997D01*
Y106998D01*
X268998Y103000D01*
Y102000D01*
X220700Y168900D02*
Y174898D01*
X223699D01*
X224699Y173898D01*
Y171899D01*
X223699Y170899D01*
X220700D01*
X222699D02*
X224699Y168900D01*
X230697Y174898D02*
X228697Y173898D01*
X226698Y171899D01*
Y169900D01*
X227698Y168900D01*
X229697D01*
X230697Y169900D01*
Y170899D01*
X229697Y171899D01*
X226698D01*
X188899Y139717D02*
Y145716D01*
X191898D01*
X192898Y144716D01*
Y142717D01*
X191898Y141717D01*
X188899D01*
X190899D02*
X192898Y139717D01*
X198896Y145716D02*
X194897D01*
Y142717D01*
X196897Y143716D01*
X197896D01*
X198896Y142717D01*
Y140717D01*
X197896Y139717D01*
X195897D01*
X194897Y140717D01*
X132797Y156450D02*
Y162448D01*
X135796D01*
X136796Y161448D01*
Y159449D01*
X135796Y158449D01*
X132797D01*
X134796D02*
X136796Y156450D01*
X141794D02*
Y162448D01*
X138795Y159449D01*
X142794D01*
X132797Y147591D02*
Y153590D01*
X135796D01*
X136796Y152590D01*
Y150591D01*
X135796Y149591D01*
X132797D01*
X134796D02*
X136796Y147591D01*
X138795Y152590D02*
X139795Y153590D01*
X141794D01*
X142794Y152590D01*
Y151590D01*
X141794Y150591D01*
X140794D01*
X141794D01*
X142794Y149591D01*
Y148591D01*
X141794Y147591D01*
X139795D01*
X138795Y148591D01*
X131813Y137749D02*
Y143747D01*
X134812D01*
X135811Y142747D01*
Y140748D01*
X134812Y139748D01*
X131813D01*
X133812D02*
X135811Y137749D01*
X141809D02*
X137811D01*
X141809Y141748D01*
Y142747D01*
X140810Y143747D01*
X138810D01*
X137811Y142747D01*
X131828Y126922D02*
Y132920D01*
X134827D01*
X135827Y131921D01*
Y129921D01*
X134827Y128922D01*
X131828D01*
X133827D02*
X135827Y126922D01*
X137826D02*
X139825D01*
X138826D01*
Y132920D01*
X137826Y131921D01*
X145654Y109221D02*
Y113220D01*
X144654Y114219D01*
X142655D01*
X141655Y113220D01*
Y109221D01*
X142655Y108221D01*
X144654D01*
X143655Y110221D02*
X145654Y108221D01*
X144654D02*
X145654Y109221D01*
X150652Y108221D02*
Y114219D01*
X147653Y111221D01*
X151652D01*
X125969Y97410D02*
Y101409D01*
X124969Y102409D01*
X122970D01*
X121970Y101409D01*
Y97410D01*
X122970Y96410D01*
X124969D01*
X123969Y98410D02*
X125969Y96410D01*
X124969D02*
X125969Y97410D01*
X127968Y101409D02*
X128968Y102409D01*
X130967D01*
X131967Y101409D01*
Y100409D01*
X130967Y99410D01*
X129967D01*
X130967D01*
X131967Y98410D01*
Y97410D01*
X130967Y96410D01*
X128968D01*
X127968Y97410D01*
X94473D02*
Y101409D01*
X93473Y102409D01*
X91474D01*
X90474Y101409D01*
Y97410D01*
X91474Y96410D01*
X93473D01*
X92473Y98410D02*
X94473Y96410D01*
X93473D02*
X94473Y97410D01*
X100471Y96410D02*
X96472D01*
X100471Y100409D01*
Y101409D01*
X99471Y102409D01*
X97472D01*
X96472Y101409D01*
X70866Y102331D02*
Y106330D01*
X69867Y107330D01*
X67867D01*
X66867Y106330D01*
Y102331D01*
X67867Y101332D01*
X69867D01*
X68867Y103331D02*
X70866Y101332D01*
X69867D02*
X70866Y102331D01*
X72865Y101332D02*
X74865D01*
X73865D01*
Y107330D01*
X72865Y106330D01*
X72835Y66975D02*
X70835D01*
X71835D01*
Y61977D01*
X70835Y60977D01*
X69836D01*
X68836Y61977D01*
X74834Y60977D02*
X76833D01*
X75834D01*
Y66975D01*
X74834Y65976D01*
X93504Y82723D02*
X89505D01*
Y79724D01*
X91505D01*
X89505D01*
Y76725D01*
X95503D02*
X97503D01*
X96503D01*
Y82723D01*
X95503Y81724D01*
X200600Y233998D02*
Y228000D01*
X203599D01*
X204599Y229000D01*
Y232998D01*
X203599Y233998D01*
X200600D01*
X210597Y232998D02*
X209597Y233998D01*
X207598D01*
X206598Y232998D01*
Y231999D01*
X207598Y230999D01*
X209597D01*
X210597Y229999D01*
Y229000D01*
X209597Y228000D01*
X207598D01*
X206598Y229000D01*
X215595Y228000D02*
Y233998D01*
X212596Y230999D01*
X216595D01*
X158200Y233998D02*
Y228000D01*
X161199D01*
X162199Y229000D01*
Y232998D01*
X161199Y233998D01*
X158200D01*
X168197Y232998D02*
X167197Y233998D01*
X165198D01*
X164198Y232998D01*
Y231999D01*
X165198Y230999D01*
X167197D01*
X168197Y229999D01*
Y229000D01*
X167197Y228000D01*
X165198D01*
X164198Y229000D01*
X170196Y232998D02*
X171196Y233998D01*
X173195D01*
X174195Y232998D01*
Y231999D01*
X173195Y230999D01*
X172195D01*
X173195D01*
X174195Y229999D01*
Y229000D01*
X173195Y228000D01*
X171196D01*
X170196Y229000D01*
X115900Y233998D02*
Y228000D01*
X118899D01*
X119899Y229000D01*
Y232998D01*
X118899Y233998D01*
X115900D01*
X125897Y232998D02*
X124897Y233998D01*
X122898D01*
X121898Y232998D01*
Y231999D01*
X122898Y230999D01*
X124897D01*
X125897Y229999D01*
Y229000D01*
X124897Y228000D01*
X122898D01*
X121898Y229000D01*
X131895Y228000D02*
X127896D01*
X131895Y231999D01*
Y232998D01*
X130895Y233998D01*
X128896D01*
X127896Y232998D01*
X73600Y233998D02*
Y228000D01*
X76599D01*
X77599Y229000D01*
Y232998D01*
X76599Y233998D01*
X73600D01*
X83597Y232998D02*
X82597Y233998D01*
X80598D01*
X79598Y232998D01*
Y231999D01*
X80598Y230999D01*
X82597D01*
X83597Y229999D01*
Y229000D01*
X82597Y228000D01*
X80598D01*
X79598Y229000D01*
X85596Y228000D02*
X87595D01*
X86596D01*
Y233998D01*
X85596Y232998D01*
X118049Y71897D02*
Y65899D01*
X121048D01*
X122047Y66898D01*
Y70897D01*
X121048Y71897D01*
X118049D01*
X124047Y65899D02*
X126046D01*
X125046D01*
Y71897D01*
X124047Y70897D01*
X233499Y106198D02*
X232499Y107198D01*
X230500D01*
X229500Y106198D01*
Y102200D01*
X230500Y101200D01*
X232499D01*
X233499Y102200D01*
X239497Y107198D02*
X235498D01*
Y104199D01*
X237497Y105199D01*
X238497D01*
X239497Y104199D01*
Y102200D01*
X238497Y101200D01*
X236498D01*
X235498Y102200D01*
X248299Y105998D02*
X247299Y106998D01*
X245300D01*
X244300Y105998D01*
Y102000D01*
X245300Y101000D01*
X247299D01*
X248299Y102000D01*
X253297Y101000D02*
Y106998D01*
X250298Y103999D01*
X254297D01*
X236499Y43998D02*
X235499Y44998D01*
X233500D01*
X232500Y43998D01*
Y40000D01*
X233500Y39000D01*
X235499D01*
X236499Y40000D01*
X238498Y43998D02*
X239498Y44998D01*
X241497D01*
X242497Y43998D01*
Y42999D01*
X241497Y41999D01*
X240497D01*
X241497D01*
X242497Y40999D01*
Y40000D01*
X241497Y39000D01*
X239498D01*
X238498Y40000D01*
X192199Y173198D02*
X191199Y174198D01*
X189200D01*
X188200Y173198D01*
Y169200D01*
X189200Y168200D01*
X191199D01*
X192199Y169200D01*
X198197Y168200D02*
X194198D01*
X198197Y172199D01*
Y173198D01*
X197197Y174198D01*
X195198D01*
X194198Y173198D01*
X142717Y72865D02*
X141717Y73865D01*
X139717D01*
X138718Y72865D01*
Y68867D01*
X139717Y67867D01*
X141717D01*
X142717Y68867D01*
X144716Y67867D02*
X146715D01*
X145716D01*
Y73865D01*
X144716Y72865D01*
X257700Y167298D02*
Y161300D01*
X260699D01*
X261699Y162300D01*
Y163299D01*
X260699Y164299D01*
X257700D01*
X260699D01*
X261699Y165299D01*
Y166298D01*
X260699Y167298D01*
X257700D01*
X267697Y161300D02*
X263698D01*
X267697Y165299D01*
Y166298D01*
X266697Y167298D01*
X264698D01*
X263698Y166298D01*
X257700Y226298D02*
Y220300D01*
X260699D01*
X261699Y221300D01*
Y222299D01*
X260699Y223299D01*
X257700D01*
X260699D01*
X261699Y224299D01*
Y225298D01*
X260699Y226298D01*
X257700D01*
X263698Y220300D02*
X265697D01*
X264698D01*
Y226298D01*
X263698Y225298D01*
D13*
X126969Y108465D02*
X130020D01*
X126969D02*
Y112402D01*
X135728Y108465D02*
X138779D01*
Y112402D01*
X109252Y108465D02*
X112303D01*
X109252D02*
Y112402D01*
X118012Y108465D02*
X121063D01*
Y112402D01*
X91535Y108465D02*
X94587D01*
X91535D02*
Y112402D01*
X100295Y108465D02*
X103347D01*
Y112402D01*
X73819Y108465D02*
X76870D01*
X73819D02*
Y112402D01*
X82579Y108465D02*
X85630D01*
Y112402D01*
X108858Y134252D02*
X130905D01*
Y125591D02*
Y134252D01*
X108858Y125591D02*
X130905D01*
X108858D02*
Y134252D01*
Y144095D02*
X130905D01*
Y135433D02*
Y144095D01*
X108858Y135433D02*
X130905D01*
X108858D02*
Y144095D01*
Y153937D02*
X130905D01*
Y145276D02*
Y153937D01*
X108858Y145276D02*
X130905D01*
X108858D02*
Y153937D01*
Y163779D02*
X130905D01*
Y155118D02*
Y163779D01*
X108858Y155118D02*
X130905D01*
X108858D02*
Y163779D01*
X154134Y143504D02*
Y163583D01*
X168701Y143504D02*
Y163583D01*
X154134D02*
X168701D01*
X154134Y143504D02*
X168701D01*
X187795Y147244D02*
X209842D01*
X187795D02*
Y155905D01*
X209842D01*
Y147244D02*
Y155905D01*
X131102Y21260D02*
X131693Y20669D01*
X143206D01*
X131595Y26575D02*
X143206D01*
Y20669D02*
Y24487D01*
Y26575D01*
X131102Y21260D02*
Y26083D01*
X131595Y26575D01*
X138386Y75590D02*
Y97638D01*
X147047D01*
Y75590D02*
Y97638D01*
X138386Y75590D02*
X147047D01*
X119980Y96063D02*
X120866D01*
X119980Y77165D02*
X120866D01*
X109449Y96063D02*
X110335D01*
X109449Y77165D02*
X110335D01*
X120866D02*
Y96063D01*
X109449Y77165D02*
Y96063D01*
X72244Y73650D02*
X87205D01*
X72244D02*
Y100224D01*
X87205D01*
Y73650D02*
Y100224D01*
X148819Y33071D02*
Y41732D01*
X126772D02*
X148819D01*
X126772Y33071D02*
Y41732D01*
Y33071D02*
X148819D01*
X244488Y143504D02*
Y165551D01*
X235827Y143504D02*
X244488D01*
X235827D02*
Y165551D01*
X244488D01*
X203110Y173012D02*
Y224587D01*
X244252Y173012D02*
Y224587D01*
X203110Y173012D02*
X244252D01*
X203110Y224587D02*
X244252D01*
X243701Y75591D02*
Y97638D01*
X252362D01*
Y75591D02*
Y97638D01*
X243701Y75591D02*
X252362D01*
X262402Y98622D02*
X271063D01*
X262402Y76575D02*
Y98622D01*
Y76575D02*
X271063D01*
Y98622D01*
X220079Y165551D02*
X228740D01*
X220079Y143504D02*
Y165551D01*
Y143504D02*
X228740D01*
Y165551D01*
X276181Y98622D02*
X284842D01*
X276181Y76575D02*
Y98622D01*
Y76575D02*
X284842D01*
Y98622D01*
X228937Y75787D02*
X237598D01*
Y97835D01*
X228937D02*
X237598D01*
X228937Y75787D02*
Y97835D01*
X231890Y35630D02*
X240551D01*
X231890Y13583D02*
Y35630D01*
Y13583D02*
X240551D01*
Y35630D01*
X82284Y123031D02*
Y162402D01*
X94882Y123031D02*
Y162402D01*
X82284D02*
X94882D01*
X82284Y123031D02*
X94882D01*
X160787Y224587D02*
X201929D01*
X160787Y173012D02*
X201929D01*
Y224587D01*
X160787Y173012D02*
Y224587D01*
X118465D02*
X159606D01*
X118465Y173012D02*
X159606D01*
Y224587D01*
X118465Y173012D02*
Y224587D01*
X76142D02*
X117283D01*
X76142Y173012D02*
X117283D01*
Y224587D01*
X76142Y173012D02*
Y224587D01*
X209646Y156102D02*
Y164764D01*
X187598D02*
X209646D01*
X187598Y156102D02*
Y164764D01*
Y156102D02*
X209646D01*
M02*
