M48
;Layer_Color=9474304
;FILE_FORMAT=2:5
INCH,LZ
;TYPE=PLATED
T1F00S00C0.02800
T2F00S00C0.03543
T3F00S00C0.04331
T4F00S00C0.11800
T5F00S00C0.13780
%
T01
X0125Y0027559
X0133858Y0054134
X0145669Y0055118
X0143701Y0065945
X0128937Y0063976
X0191929Y0045276
X0250984Y0022638
X025689Y0079724
X0266732Y0106299
X0240158Y0139764
X0182087Y0143701
Y0156496
X0188976Y0169291
X0187992Y0194882
X0181102Y0193898
X0176002
X0144685Y0194882
X0138779
Y0169817
X0143879
X0152559Y0168307
X0142717Y0160433
X0140748Y0142717
X0144685Y0133858
X0166065Y0140994
X0165443Y0146056
X0167573Y015069
X0177202Y0122369
X0182087Y0098425
X0194882Y0093504
X0166339Y0087598
X016437Y0077756
X0124016Y0073819
X0121063Y0105315
X0137198
X0103347
X008563
X0083661Y0127953
X0069882Y0140748
X009252Y0147638
X0093504Y0162402
X0102362Y0169889
X0106299Y0151575
X010567Y014188
X0126969Y0166339
T02
X0238248Y0178799
Y0188799
Y0198799
Y0208799
Y0218799
X0208661
Y0208799
Y0198799
Y0188799
Y0178799
X0195925
Y0188799
Y0198799
Y0208799
Y0218799
X0166339
Y0208799
Y0198799
Y0188799
Y0178799
X0153602
Y0188799
Y0198799
Y0208799
Y0218799
X0124016
Y0208799
Y0198799
Y0188799
Y0178799
X0111279
Y0188799
Y0198799
Y0208799
Y0218799
X0081693
Y0208799
Y0198799
Y0188799
Y0178799
T03
X00525Y002
Y003
Y004
Y005
Y006
Y007
X00625
Y006
Y005
Y004
Y003
Y002
X015748Y0023347
Y0033347
Y0043347
Y0053347
Y0063346
X021748Y0063346
Y0053346
Y0043346
Y0033346
Y0023346
X02925Y002
X03025
Y003
Y004
Y005
Y006
Y007
X02925
Y006
Y005
Y004
Y003
Y008
Y009
Y01
Y011
Y012
Y013
Y014
Y015
Y016
Y017
Y018
Y019
Y02
Y021
X03025
Y02
Y019
Y018
Y017
Y016
Y015
Y014
Y013
Y012
Y011
Y01
Y009
Y008
X021748Y0083346
Y0093346
Y0103346
Y0113346
Y0123346
Y0133346
Y0073346
X015748Y0073347
Y0083346
Y0093347
Y0103347
Y0113347
Y0123346
Y0133346
X00625Y013
Y014
Y015
Y016
Y017
Y018
Y019
Y02
Y021
Y012
Y011
Y01
Y009
Y008
X00525
Y009
Y01
Y011
Y012
Y013
Y014
Y015
Y016
Y017
Y018
Y019
Y02
Y021
T04
X0096457Y0040945
Y0065945
X0116457Y0053445
T05
X002Y002
X0335
Y021
X002
M30
