G04*
G04 #@! TF.GenerationSoftware,Altium Limited,Altium Designer,22.3.1 (43)*
G04*
G04 Layer_Color=8388736*
%FSLAX25Y25*%
%MOIN*%
G70*
G04*
G04 #@! TF.SameCoordinates,4693D6C2-E371-41B6-8F18-0127DE02636C*
G04*
G04*
G04 #@! TF.FilePolarity,Negative*
G04*
G01*
G75*
%ADD12C,0.01000*%
%ADD14R,0.03359X0.05328*%
%ADD15R,0.07099X0.07099*%
%ADD16R,0.07099X0.02178*%
%ADD17O,0.07099X0.02178*%
%ADD18R,0.03950X0.04343*%
G04:AMPARAMS|DCode=19|XSize=39.5mil|YSize=43.43mil|CornerRadius=11.87mil|HoleSize=0mil|Usage=FLASHONLY|Rotation=180.000|XOffset=0mil|YOffset=0mil|HoleType=Round|Shape=RoundedRectangle|*
%AMROUNDEDRECTD19*
21,1,0.03950,0.01968,0,0,180.0*
21,1,0.01575,0.04343,0,0,180.0*
1,1,0.02375,-0.00787,0.00984*
1,1,0.02375,0.00787,0.00984*
1,1,0.02375,0.00787,-0.00984*
1,1,0.02375,-0.00787,-0.00984*
%
%ADD19ROUNDEDRECTD19*%
%ADD20R,0.07099X0.07099*%
%ADD21R,0.07296X0.11824*%
%ADD22R,0.13202X0.07808*%
%ADD23R,0.06312X0.09068*%
%ADD24O,0.07296X0.03359*%
%ADD25C,0.06706*%
%ADD26C,0.06706*%
%ADD27R,0.06706X0.06706*%
%ADD28C,0.18800*%
%ADD29R,0.06706X0.06706*%
%ADD30C,0.07493*%
%ADD31R,0.07493X0.07493*%
%ADD32C,0.24422*%
%ADD33C,0.04900*%
D12*
X355000Y230000D02*
X355000Y-0D01*
X0Y0D02*
X355000Y-0D01*
X-0Y230000D02*
X0Y0D01*
X-0Y230000D02*
X355000Y230000D01*
D14*
X132874Y106201D02*
D03*
X129134Y116240D02*
D03*
X136614D02*
D03*
X115157Y106201D02*
D03*
X111417Y116240D02*
D03*
X118898D02*
D03*
X97441Y106201D02*
D03*
X93701Y116240D02*
D03*
X101181D02*
D03*
X79724Y106201D02*
D03*
X75984Y116240D02*
D03*
X83465D02*
D03*
D15*
X113189Y129921D02*
D03*
X126575D02*
D03*
X113189Y139764D02*
D03*
X126575D02*
D03*
X113189Y149606D02*
D03*
X126575D02*
D03*
X113189Y159449D02*
D03*
X126575D02*
D03*
X205512Y151575D02*
D03*
X192126D02*
D03*
X131102Y37402D02*
D03*
X144488D02*
D03*
X191929Y160433D02*
D03*
X205315D02*
D03*
D16*
X149409Y162500D02*
D03*
D17*
Y159941D02*
D03*
Y157382D02*
D03*
Y154823D02*
D03*
Y152264D02*
D03*
Y149705D02*
D03*
Y147146D02*
D03*
Y144587D02*
D03*
X173425Y162500D02*
D03*
Y159941D02*
D03*
Y157382D02*
D03*
Y154823D02*
D03*
Y152264D02*
D03*
Y149705D02*
D03*
Y147146D02*
D03*
Y144587D02*
D03*
D18*
X133858Y23622D02*
D03*
D19*
X140354D02*
D03*
D20*
X142717Y79921D02*
D03*
Y93307D02*
D03*
X240158Y161221D02*
D03*
Y147835D02*
D03*
X248031Y79921D02*
D03*
Y93307D02*
D03*
X266732Y80905D02*
D03*
Y94291D02*
D03*
X224410Y147835D02*
D03*
Y161221D02*
D03*
X280512Y80905D02*
D03*
Y94291D02*
D03*
X233268Y93504D02*
D03*
Y80118D02*
D03*
X236221Y17913D02*
D03*
Y31299D02*
D03*
D21*
X115157Y93602D02*
D03*
Y79626D02*
D03*
D22*
X79724Y95472D02*
D03*
Y78472D02*
D03*
D23*
X259842Y117913D02*
D03*
Y153740D02*
D03*
X277559D02*
D03*
Y117913D02*
D03*
X259842Y176969D02*
D03*
Y212795D02*
D03*
X277559D02*
D03*
Y176969D02*
D03*
D24*
X77461Y160216D02*
D03*
Y155217D02*
D03*
Y150216D02*
D03*
Y145217D02*
D03*
Y140217D02*
D03*
Y135216D02*
D03*
Y130217D02*
D03*
Y125216D02*
D03*
X99705Y160216D02*
D03*
Y155217D02*
D03*
Y150216D02*
D03*
Y145217D02*
D03*
Y140217D02*
D03*
Y135216D02*
D03*
Y130217D02*
D03*
Y125216D02*
D03*
D25*
X157480Y53347D02*
D03*
Y43347D02*
D03*
Y33347D02*
D03*
Y63346D02*
D03*
Y73347D02*
D03*
Y83346D02*
D03*
Y93347D02*
D03*
Y103347D02*
D03*
Y113347D02*
D03*
Y123346D02*
D03*
Y133346D02*
D03*
X217480Y133346D02*
D03*
Y123346D02*
D03*
Y113346D02*
D03*
Y103346D02*
D03*
Y93346D02*
D03*
Y83346D02*
D03*
Y73346D02*
D03*
Y63346D02*
D03*
Y33346D02*
D03*
Y43346D02*
D03*
Y53346D02*
D03*
X238248Y198799D02*
D03*
X208661Y208799D02*
D03*
Y198799D02*
D03*
Y188799D02*
D03*
Y178799D02*
D03*
X238248Y188799D02*
D03*
Y218799D02*
D03*
Y208799D02*
D03*
Y178799D02*
D03*
X195925D02*
D03*
Y208799D02*
D03*
Y218799D02*
D03*
Y188799D02*
D03*
X166339Y178799D02*
D03*
Y188799D02*
D03*
Y198799D02*
D03*
Y208799D02*
D03*
X195925Y198799D02*
D03*
X153602Y178799D02*
D03*
Y208799D02*
D03*
Y218799D02*
D03*
Y188799D02*
D03*
X124016Y178799D02*
D03*
Y188799D02*
D03*
Y198799D02*
D03*
Y208799D02*
D03*
X153602Y198799D02*
D03*
X111279Y178799D02*
D03*
Y208799D02*
D03*
Y218799D02*
D03*
Y188799D02*
D03*
X81693Y178799D02*
D03*
Y188799D02*
D03*
Y198799D02*
D03*
Y208799D02*
D03*
X111279Y198799D02*
D03*
D26*
X157480Y23347D02*
D03*
D27*
X217480Y23346D02*
D03*
D28*
X96457Y65945D02*
D03*
Y40945D02*
D03*
X116457Y53445D02*
D03*
D29*
X208661Y218799D02*
D03*
X166339D02*
D03*
X124016D02*
D03*
X81693D02*
D03*
D30*
X62500Y20000D02*
D03*
X52500D02*
D03*
X292500D02*
D03*
X302500D02*
D03*
X52500Y210000D02*
D03*
X62500Y200000D02*
D03*
X52500D02*
D03*
X62500Y190000D02*
D03*
X52500D02*
D03*
X62500Y180000D02*
D03*
X52500D02*
D03*
X62500Y170000D02*
D03*
X52500D02*
D03*
X62500Y160000D02*
D03*
X52500D02*
D03*
X62500Y150000D02*
D03*
X52500D02*
D03*
X62500Y140000D02*
D03*
X52500D02*
D03*
X62500Y130000D02*
D03*
X52500D02*
D03*
X62500Y120000D02*
D03*
X52500D02*
D03*
X62500Y110000D02*
D03*
X52500D02*
D03*
X62500Y100000D02*
D03*
X52500D02*
D03*
X62500Y90000D02*
D03*
X52500D02*
D03*
X62500Y80000D02*
D03*
X52500D02*
D03*
X62500Y70000D02*
D03*
X52500D02*
D03*
X62500Y60000D02*
D03*
X52500D02*
D03*
X62500Y50000D02*
D03*
X52500D02*
D03*
X62500Y40000D02*
D03*
X52500D02*
D03*
X62500Y30000D02*
D03*
X52500D02*
D03*
X292500Y210000D02*
D03*
X302500Y200000D02*
D03*
X292500D02*
D03*
X302500Y190000D02*
D03*
X292500D02*
D03*
X302500Y180000D02*
D03*
X292500D02*
D03*
X302500Y170000D02*
D03*
X292500D02*
D03*
X302500Y160000D02*
D03*
X292500D02*
D03*
X302500Y150000D02*
D03*
X292500D02*
D03*
X302500Y140000D02*
D03*
X292500D02*
D03*
X302500Y130000D02*
D03*
X292500D02*
D03*
X302500Y120000D02*
D03*
X292500D02*
D03*
X302500Y110000D02*
D03*
X292500D02*
D03*
X302500Y100000D02*
D03*
X292500D02*
D03*
X302500Y90000D02*
D03*
X292500D02*
D03*
X302500Y80000D02*
D03*
X292500D02*
D03*
X302500Y70000D02*
D03*
X292500D02*
D03*
X302500Y60000D02*
D03*
X292500D02*
D03*
X302500Y50000D02*
D03*
X292500D02*
D03*
X302500Y40000D02*
D03*
X292500D02*
D03*
X302500Y30000D02*
D03*
X292500D02*
D03*
D31*
X62500Y210000D02*
D03*
X302500D02*
D03*
D32*
X20000D02*
D03*
X335000D02*
D03*
Y20000D02*
D03*
X20000D02*
D03*
D33*
X143879Y169817D02*
D03*
X138779D02*
D03*
X152559Y168307D02*
D03*
X102362Y169889D02*
D03*
X125000Y27559D02*
D03*
X166339Y87598D02*
D03*
X143701Y65945D02*
D03*
X128937Y63976D02*
D03*
X164370Y77756D02*
D03*
X124016Y73819D02*
D03*
X145669Y55118D02*
D03*
X144685Y133858D02*
D03*
X140748Y142717D02*
D03*
X137198Y105315D02*
D03*
X142717Y160433D02*
D03*
X182087Y156496D02*
D03*
Y143701D02*
D03*
X191929Y45276D02*
D03*
X256890Y79724D02*
D03*
X266732Y106299D02*
D03*
X83661Y127953D02*
D03*
X69882Y140748D02*
D03*
X133858Y54134D02*
D03*
X182087Y98425D02*
D03*
X194882Y93504D02*
D03*
X126969Y166339D02*
D03*
X93504Y162402D02*
D03*
X187992Y194882D02*
D03*
X188976Y169291D02*
D03*
X250984Y22638D02*
D03*
X240158Y139764D02*
D03*
X138779Y194882D02*
D03*
X144685D02*
D03*
X165443Y146056D02*
D03*
X166065Y140994D02*
D03*
X167573Y150690D02*
D03*
X177202Y122369D02*
D03*
X181102Y193898D02*
D03*
X176002D02*
D03*
X105670Y141880D02*
D03*
X92520Y147638D02*
D03*
X106299Y151575D02*
D03*
X121063Y105315D02*
D03*
X103347D02*
D03*
X85630D02*
D03*
M02*
